<svg xmlns="http://www.w3.org/2000/svg" width="34.004" height="34" viewBox="0 0 34.004 34">
  <g id="Group_5508" data-name="Group 5508" transform="translate(-223.427 -346.5)">
    <path id="Path_60" data-name="Path 60" d="M257.42,363.656c0,2.505.029,5.011-.008,7.516a9.447,9.447,0,0,1-7.061,9.006,8.892,8.892,0,0,1-2.251.3c-5.11,0-10.221.056-15.329-.017a9.116,9.116,0,0,1-8.2-4.964,8.761,8.761,0,0,1-1.122-4.378c-.006-5.1-.053-10.192.015-15.287a9.114,9.114,0,0,1,4.849-8.142,8.982,8.982,0,0,1,4.616-1.186c5.077,0,10.154-.016,15.23.009a9.01,9.01,0,0,1,5.957,2.26,9.192,9.192,0,0,1,3.147,5.481,10.151,10.151,0,0,1,.151,1.744c.016,2.552.007,5.105.007,7.658Zm-16.978-9.6a9.435,9.435,0,1,0,9.427,9.434A9.426,9.426,0,0,0,240.442,354.059Zm13.205-1.9a1.889,1.889,0,1,0-1.889,1.894A1.9,1.9,0,0,0,253.648,352.163Z" fill="#f79548"/>
    <path id="Path_61" data-name="Path 61" d="M278.521,395.879a5.662,5.662,0,1,1-5.659,5.664A5.661,5.661,0,0,1,278.521,395.879Z" transform="translate(-38.091 -38.048)" fill="#f79548"/>
  </g>
</svg>
