<svg xmlns="http://www.w3.org/2000/svg" xmlns:xlink="http://www.w3.org/1999/xlink" width="90.493" height="90.493" viewBox="0 0 90.493 90.493">
  <defs>
    <clipPath id="clip-path">
      <circle id="Ellipse_42" data-name="Ellipse 42" cx="45" cy="45" r="45" transform="translate(-1 -1)" fill="#fff"/>
    </clipPath>
  </defs>
  <g id="Group_6145" data-name="Group 6145" transform="translate(-685.453 -5772.177)">
    <g id="Mask_Group_54" data-name="Mask Group 54" transform="translate(686.453 5773.424)" clip-path="url(#clip-path)">
      <g id="Group_6121" data-name="Group 6121" transform="translate(-1.102 -1)">
        <rect id="Rectangle_1140" data-name="Rectangle 1140" width="16.621" height="90" fill="#e2484d"/>
        <rect id="Rectangle_1141" data-name="Rectangle 1141" width="14.184" height="90" transform="translate(16.621)" fill="#ffa133"/>
        <rect id="Rectangle_1142" data-name="Rectangle 1142" width="14.609" height="90" transform="translate(30.806)" fill="#ffe86a"/>
        <rect id="Rectangle_1143" data-name="Rectangle 1143" width="14.609" height="90" transform="translate(45.415)" fill="#3c5f35"/>
        <rect id="Rectangle_1144" data-name="Rectangle 1144" width="14.609" height="90" transform="translate(60.024)" fill="#2b3c91"/>
        <rect id="Rectangle_1145" data-name="Rectangle 1145" width="15.469" height="90" transform="translate(74.634)" fill="#7b3d85"/>
      </g>
    </g>
    <g id="Path_13067" data-name="Path 13067" transform="translate(685.453 5772.177)" fill="none">
      <path d="M45.246,0A45.246,45.246,0,1,1,0,45.246,45.246,45.246,0,0,1,45.246,0Z" stroke="none"/>
      <path d="M 45.24627685546875 2 C 39.40718460083008 2 33.74382400512695 3.143142700195312 28.41349029541016 5.397674560546875 C 23.26399993896484 7.57574462890625 18.63884735107422 10.69423675537109 14.66654205322266 14.66654205322266 C 10.69423675537109 18.63884735107422 7.57574462890625 23.26399993896484 5.397674560546875 28.41349029541016 C 3.143142700195312 33.74382400512695 2 39.40718460083008 2 45.24627685546875 C 2 51.08536911010742 3.143142700195312 56.74872970581055 5.397674560546875 62.07906341552734 C 7.57574462890625 67.22856140136719 10.69423675537109 71.85370635986328 14.66654205322266 75.82601165771484 C 18.63884735107422 79.79831695556641 23.26399993896484 82.91680908203125 28.41349029541016 85.09487915039062 C 33.74382400512695 87.34941101074219 39.40718460083008 88.4925537109375 45.24627685546875 88.4925537109375 C 51.08536911010742 88.4925537109375 56.74872970581055 87.34941101074219 62.07906341552734 85.09487915039062 C 67.22856140136719 82.91680908203125 71.85370635986328 79.79831695556641 75.82601165771484 75.82601165771484 C 79.79831695556641 71.85370635986328 82.91680908203125 67.22856140136719 85.09487915039062 62.07906341552734 C 87.34941101074219 56.74872970581055 88.4925537109375 51.08536911010742 88.4925537109375 45.24627685546875 C 88.4925537109375 39.40718460083008 87.34941101074219 33.74382400512695 85.09487915039062 28.41349029541016 C 82.91680908203125 23.26399993896484 79.79831695556641 18.63884735107422 75.82601165771484 14.66654205322266 C 71.85370635986328 10.69423675537109 67.22856140136719 7.57574462890625 62.07906341552734 5.397674560546875 C 56.74872970581055 3.143142700195312 51.08536911010742 2 45.24627685546875 2 M 45.24627685546875 0 C 70.235107421875 0 90.4925537109375 20.25745391845703 90.4925537109375 45.24627685546875 C 90.4925537109375 70.235107421875 70.235107421875 90.4925537109375 45.24627685546875 90.4925537109375 C 20.25745391845703 90.4925537109375 0 70.235107421875 0 45.24627685546875 C 0 20.25745391845703 20.25745391845703 0 45.24627685546875 0 Z" stroke="none" fill="#061c36"/>
    </g>
    <g id="Group_6122" data-name="Group 6122" transform="translate(700.893 5803.292)">
      <path id="Path_13065" data-name="Path 13065" d="M13.783,0h0Z" transform="translate(32.181 18.664) rotate(180)" fill="#fff"/>
      <path id="Polygon_6" data-name="Polygon 6" d="M5.744,0l5.744,8.936H0Z" transform="translate(35.742 21.701) rotate(180)" fill="#fff"/>
      <g id="Group_6123" data-name="Group 6123" transform="translate(0 0)">
        <path id="Polygon_2" data-name="Polygon 2" d="M30,0,60,43.857H0Z" transform="translate(59.996 43.401) rotate(180)"/>
        <path id="Polygon_7" data-name="Polygon 7" d="M23.615,0,47.231,34.466H0Z" transform="translate(53.613 37.019) rotate(180)" fill="#603814"/>
        <path id="Polygon_8" data-name="Polygon 8" d="M17.233,0,34.466,25.53H0Z" transform="translate(47.231 30.636) rotate(180)" fill="#75d5eb"/>
        <path id="Polygon_9" data-name="Polygon 9" d="M12.127,0,24.254,17.871H0Z" transform="translate(42.125 25.53) rotate(180)" fill="#fdafc7"/>
        <path id="Polygon_10" data-name="Polygon 10" d="M7.021,0l7.021,10.212H0Z" transform="translate(37.019 20.424) rotate(180)" fill="#fff"/>
      </g>
    </g>
  </g>
</svg>
