<svg xmlns="http://www.w3.org/2000/svg" width="118.201" height="100.159" viewBox="0 0 118.201 100.159">
  <g id="Group_5971" data-name="Group 5971" transform="translate(-1403.234 -132.617)">
    <path id="Path_13" data-name="Path 13" d="M1428.514,140.295l78.639,5.438,14.938,11.529-2.49,51.283-7.877,9.523-12.572,3.918-2.672-.033,1.375,9.539-8.232,1.761-5.235-12.34-53.647-4.565-16.92-5.491,2.8-62.34Z" transform="translate(-0.656 -0.475)" fill="#f79548"/>
    <g id="Group_29" data-name="Group 29" transform="translate(1403.234 132.617)">
      <path id="Path_14" data-name="Path 14" d="M1410.293,136.44l88.614,1.4,12.767,3.587-5.018,63.618-3.434,5.352-62.5,1.478-1.494.456-9.14,15.66-6.729-2.826,5.588-14.351-.393-.2-8.367.2-6.65-3.242-4.95-4.95-1.532-61.235,3.235-4.949m-2.028-3.823-5.031,7.686,1.6,63.931,6.469,6.465,8.047,3.928,4.078-.1-4.95,12.7,13.216,5.544,9.995-17.131,63.629-1.5,5.039-7.849,5.332-67.668-16.237-4.566-91.192-1.442Z" transform="translate(-1403.234 -132.617)"/>
      <g id="Group_28" data-name="Group 28" transform="translate(9.309 15.223)">
        <path id="Path_15" data-name="Path 15" d="M1444.8,170.636l-13.8.057V149.635l9.1-.578h1.875l.4,4.063-6.149.649v10.66c.346,0,1.7-.083,1.974-.1s.609-.03,1.009-.03l-.546-7.086,4-.806Z" transform="translate(-1414.262 -148.857)"/>
        <path id="Path_16" data-name="Path 16" d="M1462.778,168.362l-2.408,2.261h-9.634l-2.41-4.064-.26-14.343a4.364,4.364,0,0,1,.275-1.24,2.585,2.585,0,0,1,.65-.952l1.784-1.18,9.421.231a7.909,7.909,0,0,1,1.841,2.824Zm-4.657-2.2v-7.2c0-.977-.037-1.993-.112-3.038s-.193-2.079-.348-3.1q-1.239.089-2.274.218t-2.332.242v11.264a8.092,8.092,0,0,0,.271.808c.085.213.2.48.333.808Z" transform="translate(-1415.318 -148.844)"/>
        <path id="Path_17" data-name="Path 17" d="M1481.357,168.362l-2.407,2.261h-9.636l-2.408-4.064-.256-14.343a4.194,4.194,0,0,1,.271-1.24,2.6,2.6,0,0,1,.646-.952l1.787-1.18,9.423.231a8.019,8.019,0,0,1,1.844,2.824Zm-4.657-2.2v-7.2c0-.977-.037-1.993-.114-3.038s-.2-2.079-.345-3.1c-.83.059-1.584.13-2.275.218s-1.469.167-2.337.242v11.264q.146.491.275.808c.086.213.2.48.331.808Z" transform="translate(-1416.468 -148.844)"/>
        <path id="Path_18" data-name="Path 18" d="M1498.867,167.495,1497.311,170c-.747.208-1.358.368-1.829.474a5.44,5.44,0,0,1-1,.159h-9.1V149.315l8.987-.287,3.373,2.42Zm-4.926-3.8q-.141-2.332-.287-4.494c-.1-1.438-.238-4.045-.238-4.045l-1.516-.65s-.942-.125-1.558-.2q.111,2.733.258,5.256t.257,5.315l2.682-.231Z" transform="translate(-1417.627 -148.855)"/>
        <path id="Path_19" data-name="Path 19" d="M1421.869,181.025l3.313-.489,2.275,1.122q2.568,3.256,2.394,4.467a17.359,17.359,0,0,1-1.9,3.945q-1.616,2.738-4.5,6.8h6.627l.318,4.522h-13.165c-.157-.289-.282-.52-.377-.693s-.226-.411-.4-.718a21.389,21.389,0,0,1,.256-2.765l6.94-9.623a4.73,4.73,0,0,0,.177-.576,3.467,3.467,0,0,1,.2-.606l-.4-.577L1415,188.456l-1.843-4.664Z" transform="translate(-1413.157 -150.805)"/>
        <path id="Path_20" data-name="Path 20" d="M1455.51,184.1l-6.827.347c0-.04.074.28.232.963s.332,1.726.531,3.128.411,3.169.634,5.3.4,4.63.534,7.493h-6.34l-.316-7.375q-.143-2.391-.26-4.5t-.26-4.494H1438.2l.318-5.242,17-.286Z" transform="translate(-1414.707 -150.737)"/>
        <path id="Path_21" data-name="Path 21" d="M1474.471,201.36h-5.759l-.7-7.692-3.736-.232-.695,7.923h-5.413l.863-10.456,1.729-10.6,9.562-.29.751,1.528Zm-7.041-12.1c-.039-.327-.13-.781-.25-1.369s-.3-1.773-.495-2.639c-.173-.037-.352-.075-.548-.114s-.392-.076-.6-.118h-.286c-.078.675-.229,1.757-.305,2.322s-.176,1.209-.238,1.917Z" transform="translate(-1415.943 -150.773)"/>
        <path id="Path_22" data-name="Path 22" d="M1488.242,201.331h-9.912V179.552h5.127v17.111q.087-.314,4.464,0Z" transform="translate(-1417.191 -150.745)"/>
        <path id="Path_23" data-name="Path 23" d="M1500.022,201.235l-1.612-9.129-.62.446a3.959,3.959,0,0,1-.535.33l.2,8.353H1491.5l.285-21.518,4.783-.286q.229,7.143-.261,8.094l4.784-6.021,1.64-2.017,3.66,3-3.862,5.59,3.054,9.849c.1.346.2.8.315,1.357s.252,1.208.4,1.956Z" transform="translate(-1418.006 -150.737)"/>
      </g>
    </g>
  </g>
</svg>
