<svg xmlns="http://www.w3.org/2000/svg" xmlns:xlink="http://www.w3.org/1999/xlink" width="40" zoomAndPan="magnify" viewBox="0 0 30 30.000001" height="40" preserveAspectRatio="xMidYMid meet" version="1.0"><defs><clipPath id="cbf176230b"><path d="M 0.484375 0 L 29.515625 0 L 29.515625 29.03125 L 0.484375 29.03125 Z M 0.484375 0 " clip-rule="nonzero"/></clipPath><clipPath id="ade236dc96"><path d="M 0.484375 0 L 29 0 L 29 29 L 0.484375 29 Z M 0.484375 0 " clip-rule="nonzero"/></clipPath></defs><g clip-path="url(#cbf176230b)"><path fill="transparent" d="M 14.785156 -11.503906 C 15.628906 -11.503906 16.472656 -11.460938 17.3125 -11.378906 C 18.152344 -11.296875 18.988281 -11.171875 19.816406 -11.007812 C 20.644531 -10.84375 21.464844 -10.636719 22.273438 -10.394531 C 23.082031 -10.148438 23.878906 -9.863281 24.65625 -9.539062 C 25.4375 -9.214844 26.203125 -8.855469 26.949219 -8.457031 C 27.691406 -8.058594 28.417969 -7.625 29.121094 -7.15625 C 29.820312 -6.6875 30.5 -6.183594 31.152344 -5.648438 C 31.804688 -5.109375 32.433594 -4.542969 33.03125 -3.945312 C 33.628906 -3.347656 34.195312 -2.722656 34.730469 -2.070312 C 35.265625 -1.417969 35.769531 -0.738281 36.238281 -0.0351562 C 36.707031 0.667969 37.140625 1.390625 37.539062 2.136719 C 37.9375 2.882812 38.300781 3.644531 38.621094 4.425781 C 38.945312 5.207031 39.230469 6 39.476562 6.808594 C 39.722656 7.617188 39.925781 8.4375 40.089844 9.265625 C 40.257812 10.09375 40.378906 10.929688 40.464844 11.769531 C 40.546875 12.613281 40.585938 13.453125 40.585938 14.300781 C 40.585938 15.144531 40.546875 15.988281 40.464844 16.828125 C 40.378906 17.667969 40.257812 18.503906 40.089844 19.332031 C 39.925781 20.164062 39.722656 20.980469 39.476562 21.789062 C 39.230469 22.597656 38.945312 23.394531 38.621094 24.175781 C 38.300781 24.953125 37.9375 25.71875 37.539062 26.464844 C 37.140625 27.207031 36.707031 27.933594 36.238281 28.636719 C 35.769531 29.339844 35.265625 30.015625 34.730469 30.667969 C 34.195312 31.324219 33.628906 31.949219 33.03125 32.546875 C 32.433594 33.144531 31.804688 33.710938 31.152344 34.246094 C 30.5 34.78125 29.820312 35.285156 29.121094 35.753906 C 28.417969 36.222656 27.691406 36.65625 26.949219 37.054688 C 26.203125 37.453125 25.4375 37.816406 24.65625 38.140625 C 23.878906 38.460938 23.082031 38.746094 22.273438 38.992188 C 21.464844 39.238281 20.644531 39.441406 19.816406 39.609375 C 18.988281 39.773438 18.152344 39.894531 17.3125 39.980469 C 16.472656 40.0625 15.628906 40.101562 14.785156 40.101562 C 13.9375 40.101562 13.09375 40.0625 12.253906 39.980469 C 11.414062 39.894531 10.578125 39.773438 9.75 39.609375 C 8.921875 39.441406 8.101562 39.238281 7.292969 38.992188 C 6.484375 38.746094 5.691406 38.460938 4.910156 38.140625 C 4.128906 37.816406 3.363281 37.453125 2.621094 37.054688 C 1.875 36.65625 1.152344 36.222656 0.449219 35.753906 C -0.253906 35.285156 -0.933594 34.78125 -1.585938 34.246094 C -2.238281 33.710938 -2.863281 33.144531 -3.460938 32.546875 C -4.058594 31.949219 -4.625 31.324219 -5.164062 30.667969 C -5.699219 30.015625 -6.203125 29.339844 -6.671875 28.636719 C -7.140625 27.933594 -7.574219 27.207031 -7.972656 26.464844 C -8.371094 25.71875 -8.734375 24.953125 -9.054688 24.175781 C -9.378906 23.394531 -9.664062 22.597656 -9.910156 21.789062 C -10.15625 20.980469 -10.359375 20.164062 -10.523438 19.332031 C -10.6875 18.503906 -10.8125 17.667969 -10.894531 16.828125 C -10.980469 15.988281 -11.019531 15.144531 -11.019531 14.300781 C -11.019531 13.453125 -10.980469 12.613281 -10.894531 11.769531 C -10.8125 10.929688 -10.6875 10.09375 -10.523438 9.265625 C -10.359375 8.4375 -10.15625 7.617188 -9.910156 6.808594 C -9.664062 6 -9.378906 5.207031 -9.054688 4.425781 C -8.734375 3.644531 -8.371094 2.882812 -7.972656 2.136719 C -7.574219 1.390625 -7.140625 0.667969 -6.671875 -0.0351562 C -6.203125 -0.738281 -5.699219 -1.417969 -5.164062 -2.070312 C -4.625 -2.722656 -4.058594 -3.347656 -3.460938 -3.945312 C -2.863281 -4.542969 -2.238281 -5.109375 -1.585938 -5.648438 C -0.933594 -6.183594 -0.253906 -6.6875 0.449219 -7.15625 C 1.152344 -7.625 1.875 -8.058594 2.621094 -8.457031 C 3.363281 -8.855469 4.128906 -9.214844 4.910156 -9.539062 C 5.691406 -9.863281 6.484375 -10.148438 7.292969 -10.394531 C 8.101562 -10.636719 8.921875 -10.84375 9.75 -11.007812 C 10.578125 -11.171875 11.414062 -11.296875 12.253906 -11.378906 C 13.09375 -11.460938 13.9375 -11.503906 14.785156 -11.503906 Z M 14.785156 -11.503906 " fill-opacity="1" fill-rule="nonzero"/></g><g clip-path="url(#ade236dc96)"><path fill="#f79548" d="M 14.582031 0 C 13.085938 -0.03125 11.621094 0.175781 10.1875 0.609375 C 8.753906 1.042969 7.421875 1.6875 6.195312 2.542969 C 5.082031 3.308594 4.109375 4.226562 3.28125 5.292969 C 2.449219 6.363281 1.804688 7.53125 1.335938 8.800781 C 0.863281 10.019531 0.589844 11.285156 0.519531 12.59375 C 0.449219 13.902344 0.582031 15.191406 0.921875 16.457031 C 1.304688 17.863281 1.910156 19.164062 2.738281 20.363281 C 3.566406 21.5625 4.574219 22.589844 5.753906 23.445312 L 5.753906 28.460938 L 10.515625 25.792969 C 11.941406 26.195312 13.398438 26.382812 14.882812 26.347656 C 16.363281 26.316406 17.8125 26.066406 19.21875 25.601562 C 20.554688 25.179688 21.800781 24.566406 22.949219 23.765625 C 24.097656 22.964844 25.101562 22.007812 25.960938 20.898438 C 26.851562 19.804688 27.535156 18.59375 28 17.261719 C 28.46875 15.929688 28.699219 14.558594 28.6875 13.148438 C 28.699219 10.765625 28.0625 8.574219 26.777344 6.574219 C 25.484375 4.523438 23.765625 2.925781 21.628906 1.777344 C 19.433594 0.570312 17.085938 -0.0195312 14.582031 0 Z M 14.582031 0 " fill-opacity="1" fill-rule="nonzero"/></g></svg>