<svg xmlns="http://www.w3.org/2000/svg" width="57.842" height="57.835" viewBox="0 0 57.842 57.835">
  <g id="Group_5524" data-name="Group 5524" transform="translate(-223.427 -346.5)">
    <path id="Path_60" data-name="Path 60" d="M281.25,375.683c0,4.262.049,8.525-.013,12.785a16.069,16.069,0,0,1-12.011,15.32,15.127,15.127,0,0,1-3.83.51c-8.692,0-17.386.1-26.076-.029-6.216-.089-10.881-3.041-13.949-8.444a14.9,14.9,0,0,1-1.908-7.446c-.01-8.668-.09-17.337.026-26,.082-6.129,2.963-10.76,8.249-13.85a15.278,15.278,0,0,1,7.852-2.018c8.636,0,17.272-.028,25.907.016a15.327,15.327,0,0,1,10.132,3.844,15.636,15.636,0,0,1,5.353,9.323,17.267,17.267,0,0,1,.257,2.967c.027,4.342.012,8.684.012,13.026Zm-28.88-16.324a16.049,16.049,0,1,0,16.035,16.048A16.033,16.033,0,0,0,252.371,359.359Zm22.463-3.226a3.214,3.214,0,1,0-3.213,3.222A3.225,3.225,0,0,0,274.834,356.133Z" transform="translate(0 0)" fill="#2c292f"/>
    <path id="Path_61" data-name="Path 61" d="M282.488,395.879a9.631,9.631,0,1,1-9.626,9.635A9.63,9.63,0,0,1,282.488,395.879Z" transform="translate(-30.138 -30.105)" fill="#2c292f"/>
  </g>
</svg>
