<svg xmlns="http://www.w3.org/2000/svg" width="58.632" height="58.632" viewBox="0 0 58.632 58.632">
  <g id="ns-text-circle-icon" transform="translate(-235 -7302)">
    <circle id="Ellipse_27" data-name="Ellipse 27" cx="29.316" cy="29.316" r="29.316" transform="translate(235 7302)" fill="#cde9e6"/>
    <g id="Group_9361" data-name="Group 9361" transform="translate(57 424.328)">
      <g id="Group_7983" data-name="Group 7983" transform="translate(190.421 6890)">
        <path id="Path_25590" data-name="Path 25590" d="M0,2.375c-8.285,0-15-5.455-15-12.187a10.818,10.818,0,0,1,3.34-7.658,14.907,14.907,0,0,0-3.211-5.613.466.466,0,0,1-.088-.51.459.459,0,0,1,.428-.281,13.4,13.4,0,0,1,8.238,3.012A17.869,17.869,0,0,1,0-22c8.285,0,15,5.455,15,12.187S8.285,2.375,0,2.375ZM-7.5-11.688A1.873,1.873,0,0,0-9.375-9.813,1.873,1.873,0,0,0-7.5-7.938,1.873,1.873,0,0,0-5.625-9.813,1.873,1.873,0,0,0-7.5-11.688Zm7.5,0A1.873,1.873,0,0,0-1.875-9.813,1.873,1.873,0,0,0,0-7.938,1.873,1.873,0,0,0,1.875-9.813,1.873,1.873,0,0,0,0-11.688Zm7.5,0A1.873,1.873,0,0,0,5.625-9.813,1.873,1.873,0,0,0,7.5-7.938,1.873,1.873,0,0,0,9.375-9.813,1.873,1.873,0,0,0,7.5-11.688Z" transform="translate(15.579 5.672) rotate(180)" fill="#6dc8bf"/>
      </g>
    </g>
  </g>
</svg>
