<svg xmlns="http://www.w3.org/2000/svg" width="58.632" height="58.632" viewBox="0 0 58.632 58.632"><g transform="translate(-119 -7302)"><circle cx="29.316" cy="29.316" r="29.316" transform="translate(119 7302)" fill="#fffdf8"/><path d="M29.316,0A29.316,29.316,0,1,1,0,29.316,29.316,29.316,0,0,1,29.316,0Z" transform="translate(119 7302)" fill="#fddfc8"/><g transform="translate(5 423.328)"><path d="M28.3,27.975l-5.974,1.379a1.3,1.3,0,0,1-.919-.115,1.237,1.237,0,0,1-.632-.689l-2.757-6.434a1.244,1.244,0,0,1-.057-.833,1.711,1.711,0,0,1,.46-.775l3.447-2.815A21.1,21.1,0,0,0,17.7,11.719a20.191,20.191,0,0,0-6-4.193L8.884,10.972a1.711,1.711,0,0,1-.775.46,1.244,1.244,0,0,1-.833-.057L.842,8.617a1.237,1.237,0,0,1-.689-.632,1.3,1.3,0,0,1-.115-.919L1.417,1.091a1.089,1.089,0,0,1,.46-.8A1.455,1.455,0,0,1,2.738,0,26.215,26.215,0,0,1,16.18,3.619a26.781,26.781,0,0,1,9.593,9.593,26.217,26.217,0,0,1,3.619,13.442,1.455,1.455,0,0,1-.287.862A1.089,1.089,0,0,1,28.3,27.975Z" transform="translate(158.695 6922.648) rotate(180)" fill="#f79548"/></g></g></svg>