<svg xmlns="http://www.w3.org/2000/svg" xmlns:xlink="http://www.w3.org/1999/xlink" width="33.021" height="22.772" viewBox="0 0 33.021 22.772">
  <defs>
    <clipPath id="clip-path">
      <rect id="Rectangle_1823" data-name="Rectangle 1823" width="33.021" height="22.772" transform="translate(0 0)" fill="#f79548"/>
    </clipPath>
  </defs>
  <g id="Group_9661" data-name="Group 9661" clip-path="url(#clip-path)">
    <path id="Path_25628" data-name="Path 25628" d="M30.148,41.527a31.257,31.257,0,0,1-4.459-.278,11.011,11.011,0,0,1-2.648-.622.356.356,0,0,1-.254-.389c.007-.995-.038-1.992.016-2.984a7.213,7.213,0,0,1,3.519-5.939.3.3,0,0,1,.411.044,5.06,5.06,0,0,0,4.59,1.217A4.722,4.722,0,0,0,33.59,31.4a.37.37,0,0,1,.528-.046,7.331,7.331,0,0,1,2.982,3.6,6.1,6.1,0,0,1,.468,2.2c.006,1.033,0,2.066.01,3.1a.345.345,0,0,1-.264.377,11.434,11.434,0,0,1-2.62.612,31.869,31.869,0,0,1-4.546.28" transform="translate(-13.67 -18.757)" fill="#f79548"/>
    <path id="Path_25629" data-name="Path 25629" d="M.008,27.855A9.175,9.175,0,0,1,.255,25.2a7.323,7.323,0,0,1,3.32-4.428.263.263,0,0,1,.374.037,5.083,5.083,0,0,0,4.077,1.321,4.911,4.911,0,0,0,2.561-1.06,1.413,1.413,0,0,1,.133-.109c.072-.044.138-.138.226-.1.114.048.062.169.058.255a4.76,4.76,0,0,0,.759,2.83.247.247,0,0,1-.089.4,8.2,8.2,0,0,0-3.122,3.612,7.563,7.563,0,0,0-.669,2.65c-.016.271-.1.385-.4.383A35.068,35.068,0,0,1,2.44,30.65a12.154,12.154,0,0,1-2.062-.509A.46.46,0,0,1,0,29.625c.027-.505.007-1.014.007-1.769" transform="translate(0 -12.43)" fill="#f79548"/>
    <path id="Path_25630" data-name="Path 25630" d="M64.859,28.118c0,.517-.017,1.034.007,1.549a.451.451,0,0,1-.359.5,12.183,12.183,0,0,1-2.06.513,34.647,34.647,0,0,1-5.072.345c-.267,0-.345-.1-.368-.345a8.135,8.135,0,0,0-3.764-6.276c-.2-.133-.238-.238-.1-.459a4.73,4.73,0,0,0,.732-2.753c0-.1-.057-.244.048-.29s.191.068.27.133a5.116,5.116,0,0,0,6.611-.105.41.41,0,0,1,.589-.062,7.345,7.345,0,0,1,3.211,4.373,10.24,10.24,0,0,1,.253,2.874" transform="translate(-31.846 -12.468)" fill="#f79548"/>
    <path id="Path_25631" data-name="Path 25631" d="M17.44,4.274A4.258,4.258,0,1,1,13.2,0,4.226,4.226,0,0,1,17.44,4.274" transform="translate(-5.356 0)" fill="#f79548"/>
    <path id="Path_25632" data-name="Path 25632" d="M52.354,4.3a4.259,4.259,0,0,1,8.518-.1,4.259,4.259,0,0,1-8.518.1" transform="translate(-31.422 -0.004)" fill="#f79548"/>
    <path id="Path_25633" data-name="Path 25633" d="M34.908,19.011a4.221,4.221,0,1,1,4.26-4.253,4.222,4.222,0,0,1-4.26,4.253" transform="translate(-18.387 -6.344)" fill="#f79548"/>
  </g>
</svg>
