<svg xmlns="http://www.w3.org/2000/svg" xmlns:xlink="http://www.w3.org/1999/xlink" width="55.271" height="55.271" viewBox="0 0 55.271 55.271">
  <defs>
    <clipPath id="clip-path">
      <rect id="Rectangle_1823" data-name="Rectangle 1823" width="37.45" height="25.826" transform="translate(0 0)" fill="#f79548"/>
    </clipPath>
  </defs>
  <g id="Group_9666" data-name="Group 9666" transform="translate(-6.5 -4.877)">
    <g id="Group_9664" data-name="Group 9664" transform="translate(6.5 4.877)">
      <path id="Path_25180" data-name="Path 25180" d="M27.636,0A27.636,27.636,0,1,1,0,27.636,27.636,27.636,0,0,1,27.636,0Z" fill="#FDDFC8"/>
      <g id="Group_9661" data-name="Group 9661" transform="translate(8.911 15.954)" clip-path="url(#clip-path)">
        <path id="Path_25628" data-name="Path 25628" d="M31.137,42.9a35.451,35.451,0,0,1-5.057-.315,12.488,12.488,0,0,1-3-.705.4.4,0,0,1-.288-.442c.008-1.128-.043-2.259.018-3.384A8.18,8.18,0,0,1,26.8,31.323a.343.343,0,0,1,.467.05,5.739,5.739,0,0,0,5.206,1.381,5.355,5.355,0,0,0,2.57-1.332.419.419,0,0,1,.6-.052,8.315,8.315,0,0,1,3.382,4.082,6.914,6.914,0,0,1,.531,2.5c.007,1.172,0,2.343.012,3.515a.391.391,0,0,1-.3.428,12.968,12.968,0,0,1-2.972.694,36.144,36.144,0,0,1-5.156.318" transform="translate(-12.448 -17.081)" fill="#f79548"/>
        <path id="Path_25629" data-name="Path 25629" d="M.009,28.814A10.406,10.406,0,0,1,.289,25.8a8.305,8.305,0,0,1,3.765-5.023.3.3,0,0,1,.424.042,5.765,5.765,0,0,0,4.623,1.5,5.57,5.57,0,0,0,2.9-1.2,1.6,1.6,0,0,1,.151-.123c.081-.049.156-.156.256-.115.129.054.071.191.066.29a5.4,5.4,0,0,0,.861,3.21.28.28,0,0,1-.1.455,9.3,9.3,0,0,0-3.541,4.1,8.578,8.578,0,0,0-.758,3.006c-.019.307-.117.437-.451.434a39.772,39.772,0,0,1-5.722-.387,13.784,13.784,0,0,1-2.338-.577A.522.522,0,0,1,0,30.82c.03-.573.008-1.15.008-2.007" transform="translate(0 -11.319)" fill="#f79548"/>
        <path id="Path_25630" data-name="Path 25630" d="M66.442,29.1c0,.586-.019,1.172.008,1.757a.511.511,0,0,1-.407.57,13.817,13.817,0,0,1-2.336.582,39.294,39.294,0,0,1-5.753.391c-.3,0-.391-.112-.417-.391a9.227,9.227,0,0,0-4.268-7.118c-.225-.151-.27-.27-.113-.521a5.364,5.364,0,0,0,.831-3.123c0-.113-.064-.277.055-.329.1-.045.216.077.307.151a5.8,5.8,0,0,0,7.5-.119.466.466,0,0,1,.668-.07,8.331,8.331,0,0,1,3.642,4.959,11.613,11.613,0,0,1,.287,3.26" transform="translate(-29 -11.353)" fill="#f79548"/>
        <path id="Path_25631" data-name="Path 25631" d="M18.583,4.847A4.83,4.83,0,1,1,13.778,0a4.793,4.793,0,0,1,4.8,4.847" transform="translate(-4.877 0)" fill="#f79548"/>
        <path id="Path_25632" data-name="Path 25632" d="M52.355,4.881a4.831,4.831,0,0,1,9.66-.119,4.831,4.831,0,0,1-9.66.119" transform="translate(-28.614 -0.003)" fill="#f79548"/>
        <path id="Path_25633" data-name="Path 25633" d="M35.481,20.143a4.787,4.787,0,1,1,4.832-4.824,4.789,4.789,0,0,1-4.832,4.824" transform="translate(-16.744 -5.777)" fill="#f79548"/>
      </g>
    </g>
  </g>
</svg>
