<svg xmlns="http://www.w3.org/2000/svg" width="40.5" height="35.643" viewBox="0 0 40.5 35.643">
  <g id="Group_5870" data-name="Group 5870" transform="translate(34.057 1.694)">
    <path id="Path_240" data-name="Path 240" d="M-25.388,17.224h5.982a1.958,1.958,0,0,1,2.109,2.1q0,6.263,0,12.526a1.959,1.959,0,0,1-2.09,2.093q-6.283,0-12.566,0a1.958,1.958,0,0,1-2.1-2.106c0-3.77-.017-7.541.019-11.311a43.644,43.644,0,0,1,.8-8.145A17.519,17.519,0,0,1-27.5,2.551a23.2,23.2,0,0,1,6.546-4.075A1.922,1.922,0,0,1-18.4-.57q.815,1.657,1.588,3.335a1.913,1.913,0,0,1-.989,2.622,16.035,16.035,0,0,0-3.47,2.019,10.5,10.5,0,0,0-3.7,6.167,17.408,17.408,0,0,0-.414,3.359C-25.39,17.015-25.388,17.1-25.388,17.224Z" transform="translate(0 0)" fill="#f7964b"/>
    <path id="Path_241" data-name="Path 241" d="M430.487,17.92h.331q2.85,0,5.7,0a1.953,1.953,0,0,1,2.1,2.082q.005,6.275,0,12.551a1.954,1.954,0,0,1-2.093,2.09q-6.283,0-12.565,0a1.951,1.951,0,0,1-2.094-2.085c0-3.8-.017-7.608.018-11.412a42.6,42.6,0,0,1,.781-8.1,17.489,17.489,0,0,1,5.758-9.787,23.83,23.83,0,0,1,6.455-4.039,1.946,1.946,0,0,1,2.611.952q.8,1.623,1.567,3.261a1.92,1.92,0,0,1-1,2.656,14.859,14.859,0,0,0-3.874,2.365,10.229,10.229,0,0,0-3.051,4.95,16.855,16.855,0,0,0-.642,4.291C430.486,17.757,430.487,17.815,430.487,17.92Z" transform="translate(-432.817 -0.696)" fill="#f7964b"/>
  </g>
</svg>
