<?xml version="1.0"?>
<svg width="58.632" height="58.632" xmlns="http://www.w3.org/2000/svg" xmlns:svg="http://www.w3.org/2000/svg">
 <g class="layer">
  <title>Layer 1</title>
  <g id="svg_1">
   <path d="m29.32,0a29.32,29.32 0 1 1 -29.32,29.32a29.32,29.32 0 0 1 29.32,-29.32z" fill="#fddfc8" id="svg_2" transform="matrix(1 0 0 1 0 0)"/>
   <g id="svg_3">
    <path d="m29.09,13.07a16.17,16.17 0 0 0 -9.53,2.89a14.87,14.87 0 0 0 -5.52,7.11a14.03,14.03 0 0 0 -0.47,8.7a14.46,14.46 0 0 0 5.49,7.94l0,5.7l5.41,-3.03a16.88,16.88 0 0 0 9.89,-0.22a15.63,15.63 0 0 0 7.66,-5.34a13.77,13.77 0 0 0 3.1,-8.81a13.73,13.73 0 0 0 -2.17,-7.47a15.74,15.74 0 0 0 -5.85,-5.45a16.38,16.38 0 0 0 -8.01,-2.02z" fill="#f79548" id="svg_4"/>
   </g>
  </g>
 </g>
</svg>